REM GENRE "Hard Guitar"
REM DATE 2008
REM DISCID B60D0B0D
REM COMMENT "ExactAudioCopy v0.95b4"
PERFORMER "Marty Friedman"
TITLE "Future Addict"
FILE "Marty Friedman - Future Addict.ape" WAVE
  TRACK 01 AUDIO
    TITLE "Barbie"
    PERFORMER "Marty Friedman"
    INDEX 01 00:00:00
  TRACK 02 AUDIO
    TITLE "Simple Mystery"
    PERFORMER "Marty Friedman"
    INDEX 01 01:00:25
  TRACK 03 AUDIO
    TITLE "Tornado of Souls"
    PERFORMER "Marty Friedman"
    INDEX 01 04:44:40
  TRACK 04 AUDIO
    TITLE "Burn the Ground"
    PERFORMER "Marty Friedman"
    INDEX 01 10:07:70
  TRACK 05 AUDIO
    TITLE "Where My Fortune"
    PERFORMER "Marty Friedman"
    INDEX 01 14:34:37
  TRACK 06 AUDIO
    TITLE "Breadline"
    PERFORMER "Marty Friedman"
    INDEX 01 19:19:42
  TRACK 07 AUDIO
    TITLE "The Pit and the Pendulum"
    PERFORMER "Marty Friedman"
    INDEX 01 23:13:40
  TRACK 08 AUDIO
    TITLE "The Killing Road"
    PERFORMER "Marty Friedman"
    INDEX 01 28:31:67
  TRACK 09 AUDIO
    TITLE "Static Rain"
    PERFORMER "Marty Friedman"
    INDEX 01 32:53:52
  TRACK 10 AUDIO
    TITLE "Secret of the Stars"
    PERFORMER "Marty Friedman"
    INDEX 01 35:41:67
  TRACK 11 AUDIO
    TITLE "Massive"
    PERFORMER "Marty Friedman"
    INDEX 01 39:53:27
  TRACK 12 AUDIO
    TITLE "Tears of an Angel"
    PERFORMER "Marty Friedman"
    INDEX 01 42:53:05
